<svg width="30" height="30" viewBox="0 0 30 30" fill="none" xmlns="http://www.w3.org/2000/svg">
<path d="M6.16053 30C5.54623 30 5.00019 29.7826 4.5224 29.3479C4.04461 28.9132 3.7147 28.3542 3.53269 27.671L0.0516462 13.0658C-0.0621133 12.5658 0.0120581 12.1053 0.27416 11.6842C0.536262 11.2632 0.894377 11.0526 1.3485 11.0526H7.8328L13.8393 0.710526C13.9531 0.5 14.1123 0.328947 14.3171 0.197368C14.5219 0.0657895 14.738 0 14.9655 0C15.193 0 15.4092 0.0657895 15.6139 0.197368C15.8187 0.328947 15.978 0.5 16.0917 0.710526L22.0982 11.0526H28.6508C29.1058 11.0526 29.4644 11.2632 29.7265 11.6842C29.9886 12.1053 30.0623 12.5658 29.9477 13.0658L26.4666 27.671C26.2846 28.3553 25.9547 28.9147 25.4769 29.3495C24.9991 29.7842 24.4531 30.001 23.8388 30H6.16053ZM14.9996 23.6842C15.7505 23.6842 16.3934 23.3753 16.9286 22.7574C17.4637 22.1395 17.7308 21.3958 17.7299 20.5263C17.729 19.6568 17.4619 18.9137 16.9286 18.2968C16.3952 17.68 15.7523 17.3705 14.9996 17.3684C14.247 17.3663 13.6045 17.6758 13.0721 18.2968C12.5397 18.9179 12.2722 19.6611 12.2694 20.5263C12.2667 21.3916 12.5343 22.1353 13.0721 22.7574C13.61 23.3795 14.2525 23.6884 14.9996 23.6842ZM11.1432 11.0526H18.822L14.9655 4.42105L11.1432 11.0526Z" fill="#660029"/>
</svg>
