<svg width="100" height="100" viewBox="0 0 100 100" fill="none" xmlns="http://www.w3.org/2000/svg">
<path d="M100 50C100 77.6139 77.6139 100 50 100C22.3861 100 0 77.6139 0 50C0 22.3861 22.3861 0 50 0C77.6139 0 100 22.3861 100 50Z" fill="#660029"/>
<path d="M33.3334 53.4722C37.1687 53.4722 40.2778 50.0522 40.2778 45.8333C40.2778 41.6145 37.1687 38.1945 33.3334 38.1945C29.498 38.1945 26.3889 41.6145 26.3889 45.8333C26.3889 50.0522 29.498 53.4722 33.3334 53.4722Z" fill="white"/>
<path d="M66.6669 55.5557C70.5022 55.5557 73.6113 51.2029 73.6113 45.8334C73.6113 40.464 70.5022 36.1112 66.6669 36.1112C62.8315 36.1112 59.7224 40.464 59.7224 45.8334C59.7224 51.2029 62.8315 55.5557 66.6669 55.5557Z" fill="white"/>
<path d="M19.7278 34.8863C20.4194 35.3751 21.3222 35.5418 22.1861 35.2613C33.8167 31.4974 41.7056 36.8001 42.0361 37.0279C43.2944 37.8946 45.0222 37.5863 45.8972 36.3335C46.7722 35.0807 46.475 33.3585 45.2278 32.4779C44.8111 32.1835 34.85 25.3251 20.4778 29.9751C19.0167 30.4474 18.2167 32.014 18.6917 33.4724C18.8806 34.0668 19.2556 34.5501 19.7278 34.8863ZM69.4444 72.2224H30.5556C29.0222 72.2224 27.7778 70.9807 27.7778 69.4446C27.7778 67.9085 29.0222 66.6668 30.5556 66.6668H69.4444C70.9806 66.6668 72.2222 67.9085 72.2222 69.4446C72.2222 70.9807 70.9806 72.2224 69.4444 72.2224ZM83.3361 28.9113C82.3139 28.9113 81.3055 28.464 80.6167 27.6029C76.7417 22.739 68.675 18.4724 65.8556 18.4724C64.0722 18.4724 60.5083 21.0029 58.6222 22.8279C57.2444 24.1668 55.0444 24.1251 53.7139 22.7501C52.3806 21.3751 52.4111 19.1807 53.7806 17.8446C54.8667 16.789 60.5472 11.5251 65.8556 11.5251C71.425 11.5251 81.2389 17.2363 86.05 23.2724C87.2472 24.7724 86.9972 26.9557 85.5 28.1501C84.8583 28.664 84.0917 28.9113 83.3361 28.9113Z" fill="white"/>
</svg>
