<svg width="23" height="23" viewBox="0 0 23 23" fill="none" xmlns="http://www.w3.org/2000/svg">
<path d="M11.25 22.25C17.3249 22.25 22.25 17.3249 22.25 11.25C22.25 5.17506 17.3249 0.25 11.25 0.25C5.17506 0.25 0.25 5.17506 0.25 11.25C0.25 17.3249 5.17506 22.25 11.25 22.25Z" fill="#660029"/>
<path d="M3.47239 19.0278C1.44104 16.9585 0.308956 14.1708 0.322384 11.2711C0.335811 8.37135 1.49367 5.59424 3.54409 3.54382C5.59451 1.49339 8.37163 0.335537 11.2713 0.322109C14.171 0.308681 16.9587 1.44077 19.0281 3.47212L3.47239 19.0278Z" fill="#660029"/>
<path d="M6.46789 6.46789L16.0321 16.0321M16.0321 6.46789L6.46789 16.0321M11.25 22.25C17.3249 22.25 22.25 17.3249 22.25 11.25C22.25 5.17506 17.3249 0.25 11.25 0.25C5.17506 0.25 0.25 5.17506 0.25 11.25C0.25 17.3249 5.17506 22.25 11.25 22.25Z" stroke="white" stroke-width="0.5" stroke-linecap="round" stroke-linejoin="round"/>
</svg>
