<svg width="30" height="30" viewBox="0 0 30 30" fill="none" xmlns="http://www.w3.org/2000/svg">
<path d="M20.2941 22.8631V20.6301C22.0588 19.457 23.8941 17.3414 24.4438 14.6288C24.6079 14.7185 24.6256 14.7768 24.8082 14.7768C25.6826 14.7768 26.3162 13.6568 26.3162 12.2766C26.3162 10.9172 25.59 9.81638 24.7332 9.78331C24.8982 9.19676 24.9918 8.41093 24.9918 7.40319C24.9918 4.03881 22.0588 0 15.4774 0C9.62824 0 5.96824 4.03881 5.96824 7.40319C5.96824 8.38047 6.02912 9.1811 6.13412 9.80071C5.33029 9.91994 4.69676 10.9773 4.69676 12.2766C4.69676 13.6576 5.40618 14.7768 6.28147 14.7768C6.46324 14.7768 6.30353 14.7185 6.46588 14.6288C7.01647 17.3405 8.82353 19.457 10.5882 20.6292V22.73C6.17647 23.2913 0 25.721 0 28.1516V29.0749C0 30 0.949412 30 1.88559 30H28.1135C29.0506 30 30 30 30 29.0758V28.1525C30 25.8768 24.7059 23.6054 20.2941 22.8631Z" fill="#660029"/>
</svg>
