<svg width="28" height="8" viewBox="0 0 28 8" fill="none" xmlns="http://www.w3.org/2000/svg">
<path d="M3.5 7.01678C2.5375 7.01678 1.71383 6.67355 1.029 5.98707C0.344169 5.3006 0.00116963 4.47437 2.9661e-06 3.5084C-0.0011637 2.54242 0.341836 1.71678 1.029 1.03148C1.71617 0.346173 2.53983 0.00235078 3.5 1.18526e-05C4.46016 -0.00232707 5.28441 0.341495 5.97275 1.03148C6.66108 1.72146 7.0035 2.5471 7 3.5084C6.9965 4.4697 6.65408 5.29592 5.97275 5.98707C5.29141 6.67822 4.46716 7.02146 3.5 7.01678ZM14 7.01678C13.0375 7.01678 12.2138 6.67355 11.529 5.98707C10.8442 5.3006 10.5012 4.47437 10.5 3.5084C10.4988 2.54242 10.8418 1.71678 11.529 1.03148C12.2162 0.346173 13.0398 0.00235078 14 1.18526e-05C14.9602 -0.00232707 15.7844 0.341495 16.4727 1.03148C17.1611 1.72146 17.5035 2.5471 17.5 3.5084C17.4965 4.4697 17.1541 5.29592 16.4727 5.98707C15.7914 6.67822 14.9672 7.02146 14 7.01678ZM24.5 7.01678C23.5375 7.01678 22.7138 6.67355 22.029 5.98707C21.3441 5.3006 21.0011 4.47437 21 3.5084C20.9988 2.54242 21.3418 1.71678 22.029 1.03148C22.7161 0.346173 23.5398 0.00235078 24.5 1.18526e-05C25.4601 -0.00232707 26.2844 0.341495 26.9727 1.03148C27.6611 1.72146 28.0035 2.5471 28 3.5084C27.9965 4.4697 27.6541 5.29592 26.9727 5.98707C26.2914 6.67822 25.4671 7.02146 24.5 7.01678Z" fill="#660029"/>
</svg>
